<?xml version="1.0" encoding="utf-8"?>
<!-- Generator: Adobe Illustrator 16.0.0, SVG Export Plug-In . SVG Version: 6.00 Build 0)  -->
<!DOCTYPE svg PUBLIC "-//W3C//DTD SVG 1.1//EN" "http://www.w3.org/Graphics/SVG/1.1/DTD/svg11.dtd">
<svg version="1.1" id="Layer_1" xmlns="http://www.w3.org/2000/svg" xmlns:xlink="http://www.w3.org/1999/xlink" x="0px" y="0px"
	 width="1370px" height="680px" viewBox="0 0 1370 680" enable-background="new 0 0 1370 680" xml:space="preserve">
<g>
	<path fill="#231F20" d="M8.243,547.915l38.044-98.911h18.51l37.898,98.911H78.465l-7.675-22.156H40.005l-7.52,22.156H8.243
		L8.243,547.915L8.243,547.915z M55.471,473.25l-11.849,36.78h23.265L55.471,473.25L55.471,473.25L55.471,473.25z"/>
	<polygon fill="#231F20" points="118.716,547.915 118.716,449.004 185.855,449.004 185.855,469.076 141.561,469.076 
		141.561,490.385 178.052,490.385 178.052,508.904 141.561,508.904 141.561,547.915 118.716,547.915 118.716,547.915 	"/>
	<path fill="#231F20" d="M204.385,547.915v-98.911h44.587c4.642,0,8.942,0.977,12.874,2.929c3.963,1.962,7.374,4.499,10.259,7.662
		c2.875,3.154,5.12,6.732,6.751,10.728c1.622,3.995,2.427,8.021,2.427,12.117c0,3.065-0.361,6.011-1.112,8.84
		c-0.739,2.851-1.804,5.522-3.199,8.021c-1.393,2.502-3.089,4.762-5.087,6.759c-1.989,1.998-4.242,3.686-6.762,5.078l22.716,36.778
		h-25.784l-19.914-31.903h-14.908v31.903H204.385L204.385,547.915L204.385,547.915z M227.233,496.102h20.907
		c2.674,0,5.003-1.289,6.971-3.838c1.941-2.562,2.922-5.82,2.922-9.824c0-4.097-1.124-7.336-3.364-9.737
		c-2.221-2.437-4.627-3.635-7.224-3.635h-20.212V496.102L227.233,496.102L227.233,496.102z"/>
	<polygon fill="#231F20" points="306.086,449.004 328.937,449.004 328.937,547.915 306.086,547.915 306.086,449.004 
		306.086,449.004 	"/>
	<path fill="#231F20" d="M343.55,497.612c0-5.934,1.076-11.843,3.214-17.749c2.132-5.892,5.251-11.172,9.33-15.82
		c4.087-4.634,9.075-8.411,14.976-11.271c5.909-2.879,12.615-4.315,20.135-4.315c8.822,0,16.473,2,22.982,5.983
		c6.505,3.989,11.329,9.195,14.487,15.605l-17.552,12.249c-1.015-2.589-2.33-4.754-3.895-6.468
		c-1.583-1.715-3.288-3.113-5.152-4.177c-1.86-1.064-3.789-1.812-5.784-2.242c-2.006-0.409-3.885-0.611-5.65-0.611
		c-4.094,0-7.612,0.873-10.585,2.636c-2.969,1.765-5.429,4.043-7.361,6.837c-1.971,2.775-3.426,5.938-4.403,9.475
		c-0.979,3.516-1.462,7.103-1.462,10.713c0,3.905,0.564,7.665,1.73,11.288c1.156,3.629,2.79,6.828,4.883,9.612
		c2.087,2.782,4.622,4.997,7.588,6.607c2.97,1.634,6.277,2.454,9.89,2.454c1.851,0,3.781-0.272,5.787-0.775
		c1.998-0.513,3.921-1.294,5.779-2.361c1.861-1.073,3.518-2.45,5.024-4.184c1.482-1.714,2.686-3.834,3.611-6.342l18.81,11.003
		c-1.491,3.632-3.646,6.878-6.464,9.762c-2.859,2.868-6.08,5.292-9.696,7.25c-3.614,1.947-7.457,3.43-11.494,4.455
		c-4.046,1.004-8.008,1.53-11.917,1.53c-6.867,0-13.155-1.456-18.877-4.398c-5.712-2.92-10.62-6.786-14.758-11.622
		c-4.136-4.831-7.362-10.313-9.679-16.438C344.716,510.168,343.55,503.948,343.55,497.612"/>
	<path fill="#231F20" d="M437.317,547.915l38.034-98.911h18.524l37.893,98.911h-24.226l-7.674-22.156H469.08l-7.519,22.156H437.317
		L437.317,547.915L437.317,547.915z M484.542,473.25l-11.833,36.78h23.268L484.542,473.25L484.542,473.25L484.542,473.25z"/>
	<polygon fill="#231F20" points="567.836,491.355 567.836,547.915 545.003,547.915 545.003,449.004 562.835,449.004 
		608.939,507.098 608.939,449.004 631.799,449.004 631.799,547.915 613.403,547.915 567.836,491.355 567.836,491.355 	"/>
	<polygon fill="#231F20" points="722.486,449.162 743.648,449.162 753.555,480.764 763.729,449.162 784.754,449.162 768.17,495.116 
		778.197,521.729 803.135,449.004 827.936,449.004 788.504,547.915 769.291,547.915 753.686,509.189 737.943,547.915 
		718.855,547.915 679.44,449.004 704.086,449.004 729.164,521.729 738.924,495.116 722.486,449.162 722.486,449.162 	"/>
	<polygon fill="#231F20" points="840.893,449.004 863.744,449.004 863.744,547.915 840.893,547.915 840.893,449.004 
		840.893,449.004 	"/>
	<polygon fill="#231F20" points="889.646,547.915 889.646,449.004 912.492,449.004 912.492,527.854 960.418,527.854 
		960.418,547.915 889.646,547.915 889.646,547.915 	"/>
	<path fill="#231F20" d="M973.104,547.915v-98.911h36.906c8.16,0,15.33,1.312,21.459,3.896c6.131,2.609,11.262,6.131,15.381,10.595
		c4.131,4.466,7.25,9.683,9.34,15.674c2.08,5.99,3.131,12.385,3.131,19.153c0,7.52-1.16,14.335-3.48,20.414
		c-2.32,6.089-5.641,11.265-9.961,15.594c-4.309,4.316-9.529,7.672-15.59,10.027c-6.1,2.38-12.85,3.558-20.279,3.558H973.104
		L973.104,547.915L973.104,547.915z M1036.061,498.322c0-4.38-0.58-8.344-1.74-11.918c-1.17-3.574-2.852-6.664-5.09-9.255
		c-2.221-2.605-4.951-4.594-8.211-5.983c-3.26-1.407-6.93-2.09-11.01-2.09h-14.062v58.777h14.062c4.18,0,7.9-0.729,11.141-2.218
		c3.26-1.493,5.979-3.565,8.148-6.213c2.182-2.647,3.852-5.758,5.021-9.326C1035.48,506.521,1036.061,502.601,1036.061,498.322"/>
	<polygon fill="#231F20" points="1074.379,547.915 1074.379,449.004 1097.219,449.004 1097.219,527.854 1145.15,527.854 
		1145.15,547.915 1074.379,547.915 1074.379,547.915 	"/>
	<polygon fill="#231F20" points="1163.4,449.004 1186.24,449.004 1186.24,547.915 1163.4,547.915 1163.4,449.004 1163.4,449.004 	
		"/>
	<polygon fill="#231F20" points="1209.359,547.915 1209.359,449.004 1276.51,449.004 1276.51,469.076 1232.199,469.076 
		1232.199,490.385 1268.709,490.385 1268.709,508.904 1232.199,508.904 1232.199,547.915 1209.359,547.915 1209.359,547.915 	"/>
	<polygon fill="#231F20" points="1361.75,527.854 1361.75,547.915 1292.25,547.915 1292.25,449.004 1360.51,449.004 
		1360.51,469.076 1315.1,469.076 1315.1,488.299 1354.1,488.299 1354.1,506.834 1315.1,506.834 1315.1,527.854 1361.75,527.854 
		1361.75,527.854 	"/>
	<polygon fill="#231F20" points="293.149,662.856 293.149,581.219 346.275,581.219 346.275,586.511 299.008,586.511 299.008,618.96 
		339.158,618.96 339.158,623.999 299.008,623.999 299.008,662.856 293.149,662.856 293.149,662.856 	"/>
	<path fill="#231F20" d="M397.448,663.444c-5.677,0-10.841-1.195-15.525-3.557c-4.67-2.386-8.704-5.492-12.072-9.317
		c-3.379-3.855-5.976-8.235-7.815-13.238c-1.837-4.979-2.761-10.072-2.761-15.29c0-5.438,0.963-10.646,2.931-15.638
		c1.95-4.979,4.645-9.384,8.047-13.232c3.411-3.832,7.456-6.872,12.141-9.121c4.672-2.277,9.729-3.405,15.176-3.405
		c5.665,0,10.847,1.202,15.531,3.625c4.672,2.407,8.668,5.577,12.016,9.486c3.318,3.905,5.919,8.345,7.752,13.276
		c1.842,4.958,2.761,9.961,2.761,15.009c0,5.528-0.981,10.773-2.934,15.767c-1.959,4.963-4.645,9.371-8.044,13.157
		c-3.42,3.808-7.442,6.826-12.078,9.086C407.928,662.309,402.904,663.444,397.448,663.444 M365.137,622.042
		c0,4.685,0.786,9.184,2.358,13.507c1.566,4.341,3.799,8.179,6.676,11.502c2.868,3.353,6.264,6.021,10.226,7.997
		c3.936,2.004,8.301,2.997,13.051,2.997c4.905,0,9.326-1.041,13.286-3.095c3.944-2.085,7.343-4.822,10.182-8.25
		c2.838-3.399,5.018-7.245,6.556-11.548c1.527-4.278,2.287-8.652,2.287-13.11c0-4.675-0.805-9.177-2.391-13.503
		c-1.619-4.339-3.867-8.17-6.747-11.509c-2.874-3.33-6.283-5.99-10.227-7.982c-3.951-1.994-8.274-3.005-12.946-3.005
		c-4.908,0-9.356,1.052-13.346,3.109c-3.989,2.069-7.373,4.815-10.158,8.224c-2.811,3.42-4.964,7.271-6.506,11.562
		C365.897,613.229,365.137,617.604,365.137,622.042"/>
	<path fill="#231F20" d="M490.375,658.045c5.513,0,10.095-1.047,13.732-3.095c3.641-2.085,6.542-4.804,8.686-8.188
		c2.141-3.366,3.649-7.195,4.541-11.488c0.882-4.305,1.318-8.622,1.318-12.997v-41.059h5.869v41.059
		c0,5.456-0.593,10.65-1.781,15.627c-1.193,5-3.128,9.389-5.809,13.176c-2.684,3.804-6.187,6.792-10.528,9.034
		c-4.317,2.224-9.634,3.315-15.925,3.315c-6.422,0-11.846-1.158-16.208-3.501c-4.38-2.338-7.874-5.426-10.525-9.302
		c-2.642-3.868-4.526-8.266-5.65-13.17c-1.097-4.907-1.643-9.964-1.643-15.18v-41.059h5.853v41.059
		c0,4.532,0.442,8.931,1.324,13.221c0.883,4.294,2.391,8.105,4.535,11.443c2.158,3.324,5.032,6.017,8.631,8.048
		C480.398,657.017,484.927,658.045,490.375,658.045"/>
	<polygon fill="#231F20" points="556.375,592.251 556.375,662.856 550.516,662.856 550.516,581.219 554.997,581.219 
		612.261,653.099 612.261,581.335 618.132,581.335 618.132,662.856 612.732,662.856 556.375,592.251 556.375,592.251 	"/>
	<path fill="#231F20" d="M645.5,662.856v-81.638h27.132c6.449,0,12.103,1.076,16.972,3.226c4.859,2.135,8.898,5.063,12.115,8.728
		c3.227,3.686,5.65,8.012,7.252,12.946c1.613,4.946,2.43,10.221,2.43,15.819c0,6.205-0.918,11.822-2.713,16.831
		c-1.807,5.036-4.404,9.312-7.742,12.896c-3.391,3.561-7.477,6.318-12.264,8.265c-4.804,1.965-10.138,2.928-16.05,2.928H645.5
		L645.5,662.856L645.5,662.856z M705.516,621.938c0-5.146-0.717-9.877-2.166-14.21c-1.473-4.323-3.6-8.081-6.379-11.214
		c-2.801-3.133-6.24-5.587-10.303-7.361c-4.062-1.759-8.735-2.642-14.036-2.642h-21.256v71.065h21.256
		c5.378,0,10.105-0.903,14.2-2.704c4.105-1.795,7.537-4.302,10.305-7.546c2.754-3.223,4.846-6.973,6.256-11.307
		C704.832,631.691,705.516,626.985,705.516,621.938"/>
	<path fill="#231F20" d="M722.193,662.856l34.742-81.638h4.834l34.717,81.638h-6.318l-11.389-26.896h-38.982l-11.4,26.896H722.193
		L722.193,662.856L722.193,662.856z M759.338,588.354l-18.164,42.776h35.988L759.338,588.354L759.338,588.354L759.338,588.354z"/>
	<polygon fill="#231F20" points="863.887,586.511 833.982,586.511 833.982,662.856 828.107,662.856 828.107,586.511 
		798.215,586.511 798.215,581.219 863.887,581.219 863.887,586.511 863.887,586.511 	"/>
	<polygon fill="#231F20" points="882.838,581.335 888.729,581.335 888.729,662.856 882.838,662.856 882.838,581.335 
		882.838,581.335 	"/>
	<path fill="#231F20" d="M948.957,663.444c-5.658,0-10.82-1.195-15.51-3.557c-4.682-2.386-8.697-5.492-12.068-9.317
		c-3.395-3.855-5.973-8.235-7.818-13.238c-1.85-4.979-2.773-10.072-2.773-15.29c0-5.438,0.994-10.646,2.943-15.638
		c1.957-4.979,4.637-9.384,8.047-13.232c3.414-3.832,7.445-6.872,12.145-9.121c4.668-2.277,9.727-3.405,15.174-3.405
		c5.678,0,10.846,1.202,15.529,3.625c4.672,2.407,8.664,5.577,12.004,9.486c3.334,3.905,5.916,8.345,7.756,13.276
		c1.84,4.958,2.77,9.961,2.77,15.009c0,5.528-0.967,10.773-2.938,15.767c-1.953,4.963-4.639,9.371-8.035,13.157
		c-3.422,3.808-7.447,6.826-12.082,9.086C959.455,662.309,954.414,663.444,948.957,663.444 M916.664,622.042
		c0,4.685,0.787,9.184,2.355,13.507c1.57,4.341,3.781,8.179,6.66,11.502c2.883,3.353,6.299,6.021,10.258,7.997
		c3.936,2.004,8.291,2.997,13.02,2.997c4.922,0,9.355-1.041,13.301-3.095c3.945-2.085,7.344-4.822,10.186-8.25
		c2.824-3.399,5.018-7.245,6.559-11.548c1.523-4.278,2.285-8.652,2.285-13.11c0-4.675-0.814-9.177-2.422-13.503
		c-1.604-4.339-3.855-8.17-6.705-11.509c-2.889-3.33-6.303-5.99-10.254-7.982c-3.936-1.994-8.258-3.005-12.949-3.005
		c-4.881,0-9.338,1.052-13.33,3.109c-3.975,2.069-7.371,4.815-10.17,8.224c-2.797,3.42-4.965,7.271-6.506,11.562
		C917.42,613.229,916.664,617.604,916.664,622.042"/>
	<polygon fill="#231F20" points="1015.09,592.251 1015.09,662.856 1009.24,662.856 1009.24,581.219 1013.719,581.219 
		1070.99,653.099 1070.99,581.335 1076.85,581.335 1076.85,662.856 1071.43,662.856 1015.09,592.251 1015.09,592.251 	"/>
	<path fill="#FFCEA9" d="M594.497,381.829c-0.104,1.604-0.433,2.991-0.865,4.271c3.921,2.178,8.754,3.448,16.461,3.687
		c14.766,0.45,15.731-4.894,15.865-17.865c0.117-12.942,6.494-22.806,8.736-25.812c7.698-8.426,12.066-15.611,22.007-20.33
		c0.527-0.221,1.101-0.409,1.667-0.594c-0.024-0.033-0.048-0.054-0.072-0.078c-5.143-5.647-10.125-13.58-16.467-18.289
		c-6.589-3.604-8.217-7.119-9.94-17.803c-0.569-0.695-1.574-0.834-2.845-0.656c-9.761,8.871-24.625,21.151-33.378,31.482
		c-11.73,13.93-13.027,15.498-19.354,24.816c-0.241,0.349-0.463,0.695-0.688,1.043c0.214,5.072,1.147,10.791,4.249,17.785
		C588.116,368.743,595.061,373.046,594.497,381.829L594.497,381.829L594.497,381.829z"/>
	<path fill="#FFCEA9" d="M865.516,373.719c1.311-1.367,5.207-5.148,6.012-7.957c0.801-2.822,1.094-4.994,0.648-8.677
		c-0.25-2.194-0.381-4.646-0.971-6.396c-0.586-1.625-1.805-3.098-4.324-4.097c-0.967-0.387-1.971-0.813-3.25-1.085
		c-0.373,6.458,0.91,13.18-0.096,21.092c-0.59,4.91-6.746,8.59-10.143,17.047c-0.105,0.261-0.203,0.532-0.295,0.818
		c1.406-1.204,3.037-2.553,4.68-4.01C861.033,377.593,864.896,374.345,865.516,373.719L865.516,373.719L865.516,373.719z"/>
	<path fill="#FFCEA9" d="M903.227,385.479c-0.965-2.242-1.834-3.506-3.963-6.303c-2.428-3.221-8.668-4.662-14.631-0.519
		c-5.945,4.106-4.701,2.186-6.855,3.362c-2.127,1.172-2.324,2.773-4.607,3.826c-2.312,1.055-3.439,0.941-3.77,3.014
		c-0.266,1.629-0.203,4.744-1.119,6.933c5.51,0.978,12.869,1.679,22.709,1.917c4.613,0.1,9.26-0.254,13.184-1.005
		c0.369-1.622,1.447-3.601,1.264-4.922C905.137,389.686,904.338,388.139,903.227,385.479L903.227,385.479L903.227,385.479z"/>
	<path fill="#FFCEA9" d="M1362.48,47.446c0.549-3.262-10.66-11.324-27.941-8.53c-27.08,4.367-46.18,32.859-72.969,47.07
		c-26.791,14.209-48.961,14.24-61.561,14.07c-19.711-0.296-38.68-5.114-51.25-11.128c-15.68-7.505-37.99-25.343-57.68-52.437
		c-8.631-7.338-13.08-13.906-30.32-15.158c-17.15-1.246-18.09-2.77-35.75,4.221c-26.439,10.469-51.688-6.335-82.131-8.863
		c-17.422-1.432-45.154,8.718-57.727,16.93c-12.58,8.205-36.701,19.466-53.689,19.984c-16.92,0.564-30.877-2.558-44.012-4.209
		c-13.109-1.641-43.504-3.352-67.201,3.718c-20.395,5.421-42.445,26.109-56.924,43.274c0.209,0.62,0.421,1.236,0.63,1.857
		c4.612-1.303,8.397-2.775,11.028-3.915c9.946-4.344,14.027-9.932,28.699-9.932c12.561,0,27.789,9.72,40.574,13.247
		c12.779,3.521,39.471,2.672,51.256,4.09c11.818,1.438,21.252,8.269,26.045,12.587c7.244,6.479,7.012,12.424,17.48,15.802
		c17.242,5.578,24.529,31.396,46.771,47.975c38.74,28.854,63.662,28.398,84.883,46.594c20.463,17.586,39.025,48.317,42.457,69.021
		c0.09,0.942,0.789,2.695,0.318,3.238c-2.52,2.826-5.66-6.051-8.939-4.028c-3.15,1.911-10.439,5.511-9.492,0.06
		c3.355-17.346-13.148-30.926-22.666-39.855c-19.326-18.088-39.002-21.264-51.467-24.201c-12.727-2.986-25.043-5.841-39.328-6.634
		c-4.875,2.267,4.994,11.703,11.074,17.717c5.521,4.83,17.791,17.12,39.094,26.646c9.309,4.183,28.895,8.366,28.068,11.059
		c-6.164,0.915-16.266,0.083-26.174-2.502c-19.479-5.067-63.406-27.483-77.934-48.28c-3.336-4.779-8.219-9.029-10.975-6.69
		c-2.781,2.338,0.76,5.179-1.496,8.098c-1.617,1.841-10.809-3.231-17.275-10.209c-1.881-2.812-3.352-5.79-10.113-3.22
		c-1.971,0.996-4.49-2.436-8.822-4.04c-2.596-0.957-4.658,0.491-9.83-0.563c-16.459-3.393-10.955,15.951-9.834,24.567
		c0.055,0.409,0.092,0.858,0.113,1.317c11.898,4.426,23.807,9.078,32.721,14.24c13.789,8.012,19.102,15.633,20.328,18.52
		c1.225,2.889-2.375,5.206-5.654,2.51c-3.297-2.691-7.564-4.818-7.248-1.761c0.119,1.266,2.723,9.88-1.098,6.225
		c-9.445-8.987-28.023-17.26-42.641-21.028c-0.668-0.176-1.387-0.353-2.098-0.535c-3.213,3.402-7.918,4.852-14.465,1.744
		c-14.951-7.102-2.881,6.677-7.746,13.996c-8.551,12.588-0.844,33.603,2.238,40.395c0.652,2.886,10.623,17.71,14.695,28.116
		c4.064,10.396,0.369,21.622,4.684,31.247c4.303,9.582,12.576,12.887,10.615,20.99c-0.129,0.502-0.248,0.933-0.367,1.338
		c11.17-0.623,20.5-2.926,20.672-8.543c0.211-6.141-1.797-8.717-7.221-13.588c-5.4-4.863-7.479-9.346-9.508-19.026
		c-2.025-9.693-2.471-18.652,0.314-27.31c2.818-8.714,7.932-21.755,8.047-26.475c0.139-4.717,1.137-10.048,5.877-13.915
		c3.211-2.454,6.703-3.886,19.529-3.61c12.838,0.274,26.393-15.979,53.842-16.584c8.051,0,1.049,10.893-2.256,23.578
		c-3.309,12.711-3.812,23.781-8.084,37.949c-2.355,6.682-5.525,9.866-7.402,13.844c0.248-0.076,0.496-0.128,0.75-0.223
		c2.398-0.848,3.924-1.292,5.674-2.63c1.301-1.015,2.504-2.634,3.705-5.22c4.127-8.828,12.904-12.998,20.166-15.393
		c13.186-3.965,24.129,6.676,30.65,3.67c2.262-1.049,5.135-2.938,8.271-4.684c0.076-0.219,0.166-0.438,0.229-0.627
		c4.846-11.685,11.939-14.893,12.984-20.279c-0.256-5.838,3.283-8.552,5.445-9.208c19.775-0.384,20.402,17.69,40.508,25.103
		c6.021,2.061,22.129,11.342,25.498,15.748c2.93,3.772,13.621,14.104,14.131,22.314c0.811,13.372-1.4,18.667,15,18.84
		c14.221,0.171,22.359-3.258,26.1-4.967c3.711-1.689,7.439-3.43,15.141-10.684c4.389-4.162,7.58-11.496,5.33-15.402
		c-3.6-6.262-9.07-5.924-17.24-13.014c-8.211-7.084-12.92-31.396-23.279-36.113c-14.801-6.76-22.852-16.867-34.391-29.109
		c-11.531-12.248-11.15-16.736-13.34-23.292c-2.18-6.573-3.68-23.766,0.609-29.519c5.631-7.428,22.391-5.225,31.689-2.473
		c9.301,2.713,18.791-3.508,15.99-17.541c-4.189-20.984-1.369-21.357,10.92-14.795c9.621,5.131,38.65-1.824,42.861,4.049
		c3.398,4.724,8.799,9.965,15.52,9.758c4.77-0.146-4.93-10.254,0.52-13.014c4.371-2.188,10.02,0.895,16.211,5.764
		c6.738,5.296,17.238,15.229,32.439,26.709c15.199,11.464,42.789,29.484,65.83,34.142c23.84,4.824,32.99,2.913,43.43-0.76
		c10.41-3.685,18.891-12.776,17.119-13.62c-1.77-0.832-7.42,2.73-15.75,3.712c-8.85,1.04-16.439,3.563-36.33-1.979
		c-25.689-7.147-39.18-19.157-70.26-48.823c-11.729-11.214-4.58-13.253-4.91-17.56c-0.199-3.434-2.389-5.828-2.029-7.132
		c1.871-5.034,14.471-6.508,35.029-8.712c26.092-2.777,38.221-7.906,60.541-23.189c20.52-14.062,33.629-31.146,53.061-46.704
		c11.779-12.317,22.689-10.349,33.309-6.321c8.17,3.125,10.73-3.586,5.98-6.684C1349.959,53.191,1361.84,51.021,1362.48,47.446
		L1362.48,47.446L1362.48,47.446z"/>
	<path fill="#F99D57" d="M494.683,289.171c-3.053-2.168-5.263-0.899-5.864,2.829c-0.8,4.898,8.188,16,11.445,27.359
		c1.778-1.398,2.922-2.534,4.846-4.133c3.059-2.528,5.665-2.566,7.672-1.365C504.412,301.518,496.946,290.799,494.683,289.171
		L494.683,289.171L494.683,289.171z"/>
	<path fill="#F99D57" d="M442.019,354.292c2.314-1.819,4.798-3.966,7.174-6.19c0.254-0.26,0.516-0.504,0.784-0.748
		c6.268-6,11.5-12.437,10.185-14.879c-8.822-8.908-15.197-19.105-21.127-27.668c-1.7,1.918-3.641,3.908-5.954,6.432
		c-7.049,7.688-14.714,15.574-14.714,15.574s-10.988,10.562-14.061,13.77c-3.268,3.404-7.327,8.906-10.182,13.59
		c-3.289,5.403-5.266,12.479-0.075,17.956c3.652,3.896,21.563,16.836,35.203,17.122c7.084,0,14.219-1.573,13.2-8.617
		c-0.597-2.781-1.113-5.957-1.058-9.688C433.653,366.52,436.853,358.154,442.019,354.292L442.019,354.292L442.019,354.292z"/>
	<path fill="#F99D57" d="M541.72,392.771c-9.183-3.662-11.339-17.424-1.201-24.64c-4.367-6.36-3.189-16.894-7.311-24.163
		c-4.666-6.699-10.594-15.543-16.411-24.168c0.274,0.983,0.441,1.977,0.469,2.907c0.169,6.267,1.174,18.5,1.429,27.117
		c0.354,12.981-4.065,22.571-4.494,31.647c-0.417,9.074,0.036,10.941,9.252,14.078c7.102,2.444,35.691,2.781,43.882-0.773
		C558.31,395.115,547.877,395.225,541.72,392.771L541.72,392.771L541.72,392.771z"/>
	<path fill="#F99D57" d="M680.625,210.448c-4.905-5.077-9.129-5.265-5.024,2.094c5.19,9.293,5.694,9.94,13.303,22.063
		c7.992,12.758,21.125,22.525,30.857,28.14c5.58,3.211,23.691,9.526,18.998,10.752c-9.705,2.521-31.408-5.829-46.518-17.478
		c-13.853-10.621-28.862-28.281-44.31-47.07c-12.756-15.492-15.764-19.162-23.143-27.711c-5.996-6.965-9.252-4.894-9.091-0.475
		c0.045,1.389,0.432,3.452,0.757,5.004c1.011,4.871,0.975,10.627-9.267-1.151c-2.437-2.784-2.761-3.405-8.527-8.193
		c-5.262-4.317-11.536,4.265-22.809-3.735c-4.312-3.26-3.664,5.099-6.064,11.907c-2.386,6.819-1.861,8.019-3.507,20.13
		c-1.685,12.155-16.104,2.373-18.465,11.211c-3.009,16.309,1.359,14.316,5.129,28.195c2.146,5.73,7.087,41.244,11.061,54.227
		c0.847,2.414,2.126,5.393,3.524,8.59c1.485-4.782,2.186-9.086,11-10.403c9.895,0.761,18.602-2.215,33.131-2.913
		c6.878-0.234,17.707-7.689,20.227-4.615c1.724,10.684,3.352,14.198,9.94,17.803c6.342,4.709,11.324,12.642,16.467,18.289
		c4.44,4.908,9.315,7.072,11.882,16.558c4.461,10.774-6.705,12.015-13.36,13.479c-6.646,1.47-4.534,19.037,2.267,28.226
		c3.724,6.647,10.173,15.418,23.399,14.239c8.083-0.789,10.08-7.19,12.042-16.705c9.178-9.364,13.387-9.725,14.354-18.848
		c1.482-9.539-3.131-28.625-5.367-37.99c-2.246-9.347,6.506-4.987,6.506-4.987c4.779,2.046,9.033,6.351,9.033,6.351
		s12.959,14.317,19.943,26.947c6.562,11.864,14.738,20.919,8.957,27.15c-4.176,4.543-4.055,15.076,0,16.375
		c7.32,1.726,35.016,1.947,39.289,0.498c3.221-1.101,3.709-2.159,4.564-5.549c1.961-8.104-6.312-11.408-10.615-20.99
		c-4.314-9.625-0.619-20.851-4.684-31.247c-4.072-10.406-14.043-25.23-14.695-28.116c-3.082-6.792-10.789-27.807-2.238-40.395
		c4.865-7.319-7.205-21.098,7.746-13.996c6.547,3.107,11.252,1.658,14.465-1.744c-15.732-3.918-41.896-8.565-60.732-17.689
		C701.344,227.15,688.463,220.288,680.625,210.448L680.625,210.448L680.625,210.448z"/>
	<path fill="#F99D57" d="M715.844,183.632c6.721,13.486,17.318,27.41,33.826,36.966c9.039,5.213,23.414,10.244,37.803,15.596
		c-0.021-0.459-0.059-0.908-0.113-1.317c-1.121-8.616-6.625-27.96,9.834-24.567c5.172,1.055,7.234-0.394,9.83,0.563
		c4.332,1.604,6.852,5.036,8.822,4.04c6.762-2.57,8.232,0.408,10.113,3.22c6.467,6.978,15.658,12.05,17.275,10.209
		c2.256-2.919-1.285-5.76,1.496-8.098c2.756-2.339,7.639,1.911,10.975,6.69c14.527,20.797,58.455,43.213,77.934,48.28
		c9.908,2.585,20.01,3.417,26.174,2.502c0.826-2.692-18.76-6.876-28.068-11.059c-21.303-9.526-33.572-21.816-39.094-26.646
		c-6.08-6.014-15.949-15.45-11.074-17.717c14.285,0.793,26.602,3.647,39.328,6.634c12.465,2.938,32.141,6.113,51.467,24.201
		c9.518,8.93,26.021,22.51,22.666,39.855c-0.947,5.451,6.342,1.852,9.492-0.06c3.279-2.022,6.42,6.854,8.939,4.028
		c0.471-0.543-0.229-2.296-0.318-3.238c-3.432-20.704-21.994-51.436-42.457-69.021c-21.221-18.195-46.143-17.739-84.883-46.594
		c-22.242-16.578-29.529-42.396-46.771-47.975c-10.469-3.378-10.236-9.323-17.48-15.802c-4.793-4.318-14.227-11.149-26.045-12.587
		c-11.785-1.418-38.477-0.568-51.256-4.09c-12.785-3.527-28.014-13.247-40.574-13.247c-14.672,0-18.753,5.588-28.699,9.932
		c-2.639,1.142-6.398,2.627-11.021,3.942c2.66,7.838,5.4,15.951,9.524,24.662C682.467,138.295,706.707,163.893,715.844,183.632
		L715.844,183.632L715.844,183.632z"/>
	<path fill="#EA7200" d="M966.709,322.079c5.91-2.413,11.182,2.528,14.02,6.063c2.891,3.549,9.098,10.283,20.08,12.901
		c10.961,2.647,21.922,0.635,25.521-2.694c3.01-2.75,4.209,2.084,3.559,2.787c-7.639,6.635-18.119,8.465-25.469,9.41
		c-5.123,0.542-7.613,0.485-10.629,0.038c-4.67-0.688-9.184-2.224-11.902-0.295c-0.771,0.587-0.934,0.96-1.98,2.397
		c-1.416,0.373-2.301,0.301-8.756-2.82c-3.551-1.885-6.205-0.901-8.613-0.146c-3.084,1.389-5.574,4.86-5.768,8.151
		c0.934,3.526-0.711,6.423,5.072,12.358c3.021,3.099,4.92,6.315,7.984,10.305c3.076,3.986,5.268,6.634,6.992,8.674
		c1.689,2.023,2.449,4.809-0.537,6.243c-3.08,1.455-11.922,2.534-13.307,1.278c-0.803-0.709-0.203-1.261-0.338-3.291
		c-0.092-1.229-0.625-3.418-2.176-5.586c-1.646-2.291-4.057-5.215-6.822-5.303c-3.008-0.125-4.33-0.644-5.443-1.67
		c-1.578-0.456-3.557-1.255-4.562,0.671c-0.361,2.376-2.342,4.332-3.336,5.486c-1.068,1.239-1.484,4.979-0.254,8.229
		c0.65,1.976-1.496,4.353-4.906,4.666c-4.02,0.276-8.838,0.92-10.43-0.973c-1.969-2.436,4.17-10.105,3.959-12.314
		c0.211-8.451,5.131-13.834,1.609-14.394c-3.533-0.558-5.582,0-10.002-1.269c-4.426-1.264-6.375,0.97-4.162,4.899
		c2.146,3.915-1.498,9.58,0.619,13.216c0.436,2.174,5.256,6.09,4.16,8.496c-1.381,3.16-9.365,2.165-11.26,2.165
		c-1.553,0-4.078-0.081-5.016-0.817c-1.746-1.365,1.113-5.092,0.82-7.161c-0.301-2.097-1.1-3.644-2.211-6.304
		c-0.965-2.242-1.834-3.506-3.963-6.303c-2.428-3.221-8.668-4.662-14.631-0.519c-5.945,4.106-4.701,2.186-6.855,3.362
		c-2.127,1.172-2.324,2.773-4.607,3.826c-2.312,1.055-3.439,0.941-3.77,3.014c-0.338,2.078-0.109,6.593-2.117,8.504
		c-2.057,1.908-8.068,2.104-11.697-0.844c-3.574-2.967-8.334-5.347-6.229-8.435c1.139-1.635,4.771-4.403,8.42-7.63
		c3.256-2.862,7.119-6.11,7.738-6.736c1.311-1.367,5.207-5.148,6.012-7.957c0.801-2.822,1.094-4.994,0.648-8.677
		c-0.25-2.194-0.381-4.646-0.971-6.396c-0.586-1.625-1.805-3.098-4.324-4.097c-2.49-1.005-5.125-2.239-12.514-0.581
		c-5.781,1.323-9.234,2.746-12.156,4.26c-3.104,1.646-7.252,4.744-8.012,5.076c-5.752-0.592-2.072-3.865,1.844-6.796
		c4-2.979,12.248-6.309,19.252-7.916c4.533-1.034,7.48-1.198,10.703-2.349c2.398-0.848,3.924-1.292,5.674-2.63
		c1.301-1.015,2.504-2.634,3.705-5.22c4.127-8.828,12.904-12.998,20.166-15.393c13.186-3.965,24.129,6.676,30.65,3.67
		c6.545-3.041,18.09-13.07,26.732-6.486C956.406,314.911,960.982,321.643,966.709,322.079"/>
	<path fill="#EA7200" d="M840.521,268.953c-1.227-2.887-6.539-10.508-20.328-18.52c-19.693-11.406-54.01-20.315-70.523-29.836
		c-16.508-9.556-27.105-23.479-33.826-36.966c-9.137-19.739-33.376-45.337-42.355-60.696c-9.188-19.414-11.513-35.844-21.372-52.934
		c-3.501-8.65-6.124-13.739-12.651-21.763c-9.884-11.526-29.163-12.583-41.941-10.161c-16.527,3.655-36.071,3.5-47.574-3.713
		c-18.754-7.26-20.635-13.971-41.471-15c-20.809-1.014-34.961,11.572-41.613,16.757c-9.219,7.236-18.713,27.069-58.564,23.214
		c-39.887-3.849-41.17-10.497-56.322-15.7c-9.869-3.366-12.347-5.558-32.636-6.866c-27.118-1.789-53.406,14.877-58.684,18.268
		c-11.833,6.59-27.37,18.301-41.342,25.949c-16.682,9.668-24.3,18.295-43.182,19.451c-12.248,1.119-31.611,0.906-50.416-5.713
		c-18.801-6.598-44.627-27.272-52.844-32.027c-8.033-4.67-22.982-8.527-30.532-7.797c-9.073,0.861-15.018,2.099-21.217,4.543
		c-7.266,2.859-14.95,7.797-10.68,7.297c3.721-0.439,14.374-3.318,18.214-2.576C29.075,65.81,11.981,69.238,7.5,75.121
		c0.135,2.239,3.483-0.394,9.3,0.307c5.853,0.684-9.729,7.141-8.441,9.136c1.279,1.971,8.707-2.984,14.07-4.12
		c4.187-0.859,4.75-0.859,3.462,0.867c-1.485,1.986-6.768,4.275-10.388,8.012c-5.367,5.524-7.666,12.058-5.701,11.339
		c3.304-1.169,3.482-2.647,8.074-6.568c4.732-4.011,9.434-7.749,14.297-10.409c4.773-2.578,11.479-6.5,20.57-6.055
		c14.753,0.709,25.528,2.373,38.534,10.462c15.093,9.386,47.067,24.825,78.723,29.488c27.12,4.004,28.969,12.245,27.457,31.56
		c-2.06,26.36-9.398,31.422-9.905,58.353c-0.244,12.597,7.523,23.837,11.137,36.64c4.093,14.598,3.547,30.484-7.323,39.76
		c-20.4,17.397-11.312,6.568-33.826,30.829c-28.471,30.689-28.152,48.063-25.045,55.947c2.895,7.256,26.011,18.115,37.225,20.703
		c11.207,2.608,21.201-1.208,25.083-9.474c3.886-8.275-8.777-11.365-4.672-24.229c6.897-23.969,37.857-34.606,51.766-34.224
		c13.93,0.367,15.797-4.207,22.019-10.178c6.205-5.902,11.444-15.316,17.914-14.513c6.47,0.813,10.557,27.519,8.53,34.542
		c-2.06,6.975-8.718,23.93-11.998,37.723c-2.176,9.097,3.619,18.232,13.942,21.035c10.301,2.785,30.656,1.053,38.906-0.262
		c5.135-0.836,11.015-10.49,4.303-16.443c-10.293-9.172-12.284-21.849-8.659-32.037c3.641-10.209,16.306-39.896,18.605-43.531
		c2.627-12.113-3.894-12.072,12.222-17.689c10.838-2.277,43.059-21.021,49.288-18.066c0.262,6.334,1.27,17.312,16.038,24.012
		c12.606,6.281,20.555,27.681,37.156,44.439c1.86,3.457-9.38,14.926-18.143,21.817c-5.352,4.003-8.631,12.847,0.218,17.134
		c10.623,6.523,17.633,15.287,29.142,17.293c8.256,1.221,13.119-0.48,16.995-7.736c3.256-6.08-3.679-13.512,0.444-22.562
		c4.108-9.073,6.464-10.987,11.685-25.829c5.197-14.852-12.797-33.755-11.685-40.592c0.602-3.729,2.812-4.997,5.864-2.829
		c4.159,2.996,25.913,36.7,38.525,54.802c4.121,7.266,2.943,17.799,7.311,24.159c-10.138,7.216-7.981,20.978,1.201,24.64
		c9.169,3.652,27.815,1.627,37.172,1.627c9.358,0,15.044-3.758,15.605-12.569c0.563-8.783-6.381-13.086-14.624-18.343
		c-7.845-17.701-1.903-27.305-5.206-38.645c-2.478-8.428-8.259-19.648-10.66-26.484c-3.974-12.982-8.915-48.496-11.061-54.227
		c-3.77-13.879-8.138-11.887-5.129-28.195c2.361-8.838,16.78,0.944,18.465-11.211c1.646-12.111,1.121-13.311,3.507-20.13
		c2.4-6.809,1.753-15.167,6.064-11.907c11.272,8,17.547-0.582,22.809,3.735c5.767,4.788,6.091,5.409,8.527,8.193
		c10.241,11.778,10.277,6.022,9.267,1.151c-0.325-1.552-0.712-3.615-0.757-5.004c-0.161-4.419,3.095-6.49,9.091,0.475
		c7.379,8.549,10.387,12.219,23.143,27.711c15.447,18.789,30.457,36.449,44.31,47.07c15.109,11.648,36.812,19.998,46.518,17.478
		c4.693-1.226-13.418-7.541-18.998-10.752c-9.732-5.614-22.865-15.382-30.857-28.14c-7.609-12.123-8.113-12.771-13.303-22.063
		c-4.105-7.358,0.119-7.171,5.024-2.094c7.837,9.84,20.718,16.702,40.425,26.226c19.689,9.535,47.406,14.184,62.83,18.225
		c14.617,3.769,33.195,12.041,42.641,21.028c3.82,3.655,1.217-4.959,1.098-6.225c-0.316-3.058,3.951-0.931,7.248,1.761
		C838.146,274.159,841.746,271.842,840.521,268.953"/>
</g>
</svg>
